<?xml version="1.0" encoding="UTF-8" standalone="no"?>
<svg
   id="Layer_1"
   enable-background="new 0 0 511.656 511.656"
   height="512"
   viewBox="0 0 511.656 511.656"
   width="512"
   version="1.1"
   sodipodi:docname="analysis.svg"
   inkscape:export-filename="analysis.png"
   inkscape:export-xdpi="6"
   inkscape:export-ydpi="6"
   inkscape:version="1.4.1 (unknown)"
   xmlns:inkscape="http://www.inkscape.org/namespaces/inkscape"
   xmlns:sodipodi="http://sodipodi.sourceforge.net/DTD/sodipodi-0.dtd"
   xmlns="http://www.w3.org/2000/svg"
   xmlns:svg="http://www.w3.org/2000/svg">
  <defs
     id="defs5" />
  <sodipodi:namedview
     id="namedview5"
     pagecolor="#ffffff"
     bordercolor="#666666"
     borderopacity="1.0"
     inkscape:showpageshadow="2"
     inkscape:pageopacity="0.0"
     inkscape:pagecheckerboard="0"
     inkscape:deskcolor="#d1d1d1"
     inkscape:zoom="2.2304688"
     inkscape:cx="256"
     inkscape:cy="256"
     inkscape:window-width="2544"
     inkscape:window-height="1344"
     inkscape:window-x="83"
     inkscape:window-y="58"
     inkscape:window-maximized="0"
     inkscape:current-layer="Layer_1" />
  <g
     id="g5">
    <path
       d="m384.175 385.631c-7.534 0-14.655 1.786-20.977 4.943l-32.683-32.683c-2.812-2.813-6.628-4.394-10.606-4.394h-49.267v30h43.054l28.29 28.289c-15.77 30.507 7.693 68.57 42.191 68.11 62.438-2.366 62.427-91.904-.002-94.265z"
       id="path1" />
    <path
       d="m464.508 273.164c-20.745 0-38.39 13.478-44.671 32.133h-29.449l-27.739-27.74c-2.812-2.813-6.628-4.394-10.606-4.394h-81.4v30h75.188l27.739 27.74c2.812 2.813 6.628 4.394 10.606 4.394h35.662c17.611 49.89 90.754 38.537 91.805-15.001-.001-25.988-21.146-47.132-47.135-47.132z"
       id="path2" />
    <path
       d="m330.515 154.171 32.683-32.683c30.504 15.771 68.572-7.694 68.111-42.191 0-25.989-21.144-47.133-47.133-47.133-34.494-.458-57.964 37.606-42.19 68.111l-28.29 28.289h-43.054v30h49.267c3.978 0 7.793-1.58 10.606-4.393z"
       id="path3" />
    <path
       d="m362.648 234.504 27.739-27.74h29.449c17.604 49.883 90.754 38.543 91.805-15.001-1.056-53.551-74.211-64.875-91.805-14.999h-35.662c-3.979 0-7.794 1.581-10.606 4.394l-27.739 27.74h-75.188v30h81.4c3.98 0 7.795-1.581 10.607-4.394z"
       id="path4" />
    <path
       d="m183.375.031c-51.667-1.793-79.285 74.746-36.133 78.401 8.284-.001 15 6.715 15 14.999s-6.716 15-15 15c-22.977 0-42.459-15.236-48.884-36.133h-5.315c-31.577 0-57.267 25.689-57.267 57.267 0 21.615 17.585 39.2 39.2 39.2 19.866.726 19.878 29.268 0 30h-18.068c-75.887 2.888-75.829 111.673 0 114.533h18.067c19.879.741 19.869 29.265 0 30-21.615 0-39.2 17.585-39.2 39.2 0 31.577 25.69 57.267 57.267 57.267h5.315c6.426-20.898 25.907-36.133 48.884-36.133 8.284 0 15 6.716 15 15s-6.716 15-15 15c-11.653 0-21.133 9.48-21.133 21.133 2.87 75.857 111.666 75.855 114.533 0v-108.4c-1.526-39.979-58.825-39.942-60.333 0 0 8.284-6.716 15-15 15s-15-6.716-15-15c-.645-45.71 51.419-75.498 90.333-52.024v-76.618c-38.926 23.471-90.975-6.314-90.332-52.025-.001-8.283 6.715-14.999 14.999-14.999s15 6.716 15 15c1.517 39.971 58.827 39.947 60.333 0v-108.4c.001-31.579-25.689-57.268-57.266-57.268z"
       id="path5" />
  </g>
</svg>
