<?xml version="1.0" encoding="UTF-8" standalone="no"?>
<!-- Generator: Adobe Illustrator 19.0.0, SVG Export Plug-In . SVG Version: 6.00 Build 0)  -->

<svg
   version="1.1"
   id="Capa_1"
   x="0px"
   y="0px"
   viewBox="0 0 511.999 511.999"
   style="enable-background:new 0 0 511.999 511.999;"
   xml:space="preserve"
   sodipodi:docname="charge.svg"
   inkscape:version="1.4.1 (unknown)"
   inkscape:export-filename="charge.png"
   inkscape:export-xdpi="6.0000119"
   inkscape:export-ydpi="6.0000119"
   xmlns:inkscape="http://www.inkscape.org/namespaces/inkscape"
   xmlns:sodipodi="http://sodipodi.sourceforge.net/DTD/sodipodi-0.dtd"
   xmlns="http://www.w3.org/2000/svg"
   xmlns:svg="http://www.w3.org/2000/svg"><defs
   id="defs23" /><sodipodi:namedview
   id="namedview23"
   pagecolor="#ffffff"
   bordercolor="#666666"
   borderopacity="1.0"
   inkscape:showpageshadow="2"
   inkscape:pageopacity="0.0"
   inkscape:pagecheckerboard="0"
   inkscape:deskcolor="#d1d1d1"
   inkscape:zoom="2.2304731"
   inkscape:cx="255.77533"
   inkscape:cy="255.9995"
   inkscape:window-width="2544"
   inkscape:window-height="1344"
   inkscape:window-x="83"
   inkscape:window-y="58"
   inkscape:window-maximized="0"
   inkscape:current-layer="Capa_1" />
<g
   id="g2"
   transform="matrix(1,0,0,-1,0,511.999)"
   style="fill:#550000">
	<g
   id="g1"
   style="fill:#550000">
		<path
   d="M 376.001,61 C 318.109,61 271,108.11 271,166.001 c 0,57.891 47.11,105.001 105.001,105.001 57.892,0 105.001,-47.11 105.001,-105.001 C 481.002,108.11 433.893,61 376.001,61 Z m 30,120.002 H 346 c -8.291,0 -15,-6.709 -15,-15 0,-8.291 6.709,-15 15,-15 h 60.001 c 8.291,0 15,6.709 15,15 0,8.291 -6.709,15 -15,15 z"
   id="path1"
   style="fill:#550000" />
	</g>
</g>
<g
   id="g4"
   transform="matrix(1,0,0,-1,0,511.999)"
   style="fill:#004455">
	<g
   id="g3"
   style="fill:#004455">
		<path
   d="m 135.998,241.002 c -57.892,0 -105.001,47.11 -105.001,105.001 0,57.891 47.11,105.001 105.001,105.001 57.891,0 105.001,-47.11 105.001,-105.001 0,-57.891 -47.109,-105.001 -105.001,-105.001 z m 30,120.002 h -15 v 15 c 0,8.291 -6.709,15 -15,15 -8.291,0 -15,-6.709 -15,-15 v -15 h -15 c -8.291,0 -15,-6.709 -15,-15 0,-8.291 6.709,-15 15,-15 h 15 v -15 c 0,-8.291 6.709,-15 15,-15 8.291,0 15,6.709 15,15 v 15 h 15 c 8.291,0 15,6.709 15,15 0,8.291 -6.708,15 -15,15 z"
   id="path2"
   style="fill:#004455" />
	</g>
</g>
<g
   id="g6"
   transform="matrix(1,0,0,-1,0,511.999)">
	<g
   id="g5">
		<path
   d="M 208.479,96.681 148.478,6.263 c -5.566,-8.35 -19.395,-8.35 -24.961,0 L 63.516,96.681 c -6.64,9.977 0.545,23.32 12.481,23.32 h 15 v 99.294 c 14.145,-5.043 29.145,-8.293 45.001,-8.293 15.855,0 30.855,3.25 45.001,8.293 v -99.294 h 15 c 11.936,0 19.121,-13.343 12.48,-23.32 z"
   id="path4" />
	</g>
</g>
<g
   id="g8"
   transform="matrix(1,0,0,-1,0,511.999)">
	<g
   id="g7">
		<path
   d="m 436.002,392.004 h -15 V 292.71 c -14.145,5.043 -29.145,8.293 -45,8.293 -15.855,0 -30.855,-3.25 -45.001,-8.293 v 99.294 h -15 c -11.936,0 -19.121,13.343 -12.48,23.32 l 60.001,90.001 c 5.932,8.898 19.029,8.898 24.961,0 l 60.001,-90.001 c 6.639,-9.977 -0.546,-23.32 -12.482,-23.32 z"
   id="path6" />
	</g>
</g>
<g
   id="g9"
   transform="matrix(1,0,0,-1,0,511.999)">
</g>
<g
   id="g10"
   transform="matrix(1,0,0,-1,0,511.999)">
</g>
<g
   id="g11"
   transform="matrix(1,0,0,-1,0,511.999)">
</g>
<g
   id="g12"
   transform="matrix(1,0,0,-1,0,511.999)">
</g>
<g
   id="g13"
   transform="matrix(1,0,0,-1,0,511.999)">
</g>
<g
   id="g14"
   transform="matrix(1,0,0,-1,0,511.999)">
</g>
<g
   id="g15"
   transform="matrix(1,0,0,-1,0,511.999)">
</g>
<g
   id="g16"
   transform="matrix(1,0,0,-1,0,511.999)">
</g>
<g
   id="g17"
   transform="matrix(1,0,0,-1,0,511.999)">
</g>
<g
   id="g18"
   transform="matrix(1,0,0,-1,0,511.999)">
</g>
<g
   id="g19"
   transform="matrix(1,0,0,-1,0,511.999)">
</g>
<g
   id="g20"
   transform="matrix(1,0,0,-1,0,511.999)">
</g>
<g
   id="g21"
   transform="matrix(1,0,0,-1,0,511.999)">
</g>
<g
   id="g22"
   transform="matrix(1,0,0,-1,0,511.999)">
</g>
<g
   id="g23"
   transform="matrix(1,0,0,-1,0,511.999)">
</g>
</svg>
