<?xml version="1.0" encoding="UTF-8" standalone="no"?>
<svg
   fill="none"
   height="512"
   viewBox="0 0 24 24"
   width="512"
   version="1.1"
   id="svg2"
   sodipodi:docname="clear.svg"
   inkscape:export-filename="clear.png"
   inkscape:export-xdpi="6"
   inkscape:export-ydpi="6"
   inkscape:version="1.4.1 (unknown)"
   xmlns:inkscape="http://www.inkscape.org/namespaces/inkscape"
   xmlns:sodipodi="http://sodipodi.sourceforge.net/DTD/sodipodi-0.dtd"
   xmlns="http://www.w3.org/2000/svg"
   xmlns:svg="http://www.w3.org/2000/svg">
  <defs
     id="defs2" />
  <sodipodi:namedview
     id="namedview2"
     pagecolor="#ffffff"
     bordercolor="#666666"
     borderopacity="1.0"
     inkscape:showpageshadow="2"
     inkscape:pageopacity="0.0"
     inkscape:pagecheckerboard="0"
     inkscape:deskcolor="#d1d1d1"
     inkscape:zoom="2.2304688"
     inkscape:cx="256"
     inkscape:cy="256"
     inkscape:window-width="2544"
     inkscape:window-height="1344"
     inkscape:window-x="83"
     inkscape:window-y="58"
     inkscape:window-maximized="0"
     inkscape:current-layer="svg2" />
  <g
     clip-rule="evenodd"
     fill="rgb(0,0,0)"
     fill-rule="evenodd"
     id="g2">
    <path
       d="m8.66668 1c-.55229 0-1 .44772-1 1v2h-4.71429c-.55228 0-1 .44772-1 1s.44772 1 1 1h18.09521c.5523 0 1-.44772 1-1s-.4477-1-1-1h-4.619v-2c0-.55228-.4477-1-1-1zm1 2.85714v-.85714h4.76192v.85714z"
       id="path1" />
    <path
       d="m19.9524 8h-16.00001v11.1667c0 2.1466 1.64993 3.8333 3.8 3.8333h8.40001c2.1501 0 3.8-1.6867 3.8-3.8333zm-9.3333 3.5234c0-.5522-.4478-1-1.00004-1-.55229 0-1 .4478-1 1v6.6667c0 .5523.44771 1 1 1 .55224 0 1.00004-.4477 1.00004-1zm4.7619 0c0-.5522-.4477-1-1-1s-1 .4478-1 1v6.6667c0 .5523.4477 1 1 1s1-.4477 1-1z"
       id="path2" />
  </g>
</svg>
