<?xml version="1.0" encoding="UTF-8" standalone="no"?>
<svg
   id="Layer_1"
   data-name="Layer 1"
   viewBox="0 0 24 24"
   version="1.1"
   sodipodi:docname="load.svg"
   inkscape:export-filename="load.png"
   inkscape:export-xdpi="128"
   inkscape:export-ydpi="128"
   inkscape:version="1.4.1 (unknown)"
   xmlns:inkscape="http://www.inkscape.org/namespaces/inkscape"
   xmlns:sodipodi="http://sodipodi.sourceforge.net/DTD/sodipodi-0.dtd"
   xmlns="http://www.w3.org/2000/svg"
   xmlns:svg="http://www.w3.org/2000/svg">
  <defs
     id="defs1" />
  <sodipodi:namedview
     id="namedview1"
     pagecolor="#ffffff"
     bordercolor="#666666"
     borderopacity="1.0"
     inkscape:showpageshadow="2"
     inkscape:pageopacity="0.0"
     inkscape:pagecheckerboard="0"
     inkscape:deskcolor="#d1d1d1"
     inkscape:zoom="47.583333"
     inkscape:cx="12.010508"
     inkscape:cy="12"
     inkscape:window-width="2544"
     inkscape:window-height="1344"
     inkscape:window-x="83"
     inkscape:window-y="58"
     inkscape:window-maximized="0"
     inkscape:current-layer="Layer_1" />
  <path
     d="M12,7V.46c.913,.346,1.753,.879,2.465,1.59l3.484,3.486c.712,.711,1.245,1.551,1.591,2.464h-6.54c-.552,0-1-.449-1-1Zm6,5c-3.314,0-6,2.686-6,6s2.686,6,6,6,6-2.686,6-6-2.686-6-6-6Zm2.932,5.459c-.136,.328-.456,.541-.812,.541h-1.121v3c0,.552-.447,1-1,1s-1-.448-1-1v-3h-1.121c-.355,0-.676-.213-.812-.541-.138-.329-.062-.706,.19-.957l1.5-1.5c.685-.685,1.8-.685,2.485,0l1.5,1.5c.253,.252,.326,.632,.19,.957Zm-10.932,.541c0-4.411,3.589-8,8-8h-5c-1.654,0-3-1.346-3-3V.024c-.161-.011-.322-.024-.485-.024H5C2.243,0,0,2.243,0,5v14c0,2.757,2.243,5,5,5h7.726c-1.667-1.467-2.726-3.61-2.726-6Z"
     id="path1" />
</svg>
