<?xml version="1.0" encoding="UTF-8" standalone="no"?>
<svg
   fill="none"
   height="512"
   viewBox="0 0 24 24"
   width="512"
   version="1.1"
   id="svg12"
   sodipodi:docname="matrix.svg"
   inkscape:export-filename="matrix.png"
   inkscape:export-xdpi="6"
   inkscape:export-ydpi="6"
   inkscape:version="1.4.1 (unknown)"
   xmlns:inkscape="http://www.inkscape.org/namespaces/inkscape"
   xmlns:sodipodi="http://sodipodi.sourceforge.net/DTD/sodipodi-0.dtd"
   xmlns="http://www.w3.org/2000/svg"
   xmlns:svg="http://www.w3.org/2000/svg">
  <defs
     id="defs12" />
  <sodipodi:namedview
     id="namedview12"
     pagecolor="#ffffff"
     bordercolor="#666666"
     borderopacity="1.0"
     inkscape:showpageshadow="2"
     inkscape:pageopacity="0.0"
     inkscape:pagecheckerboard="0"
     inkscape:deskcolor="#d1d1d1"
     inkscape:zoom="2.2304688"
     inkscape:cx="256"
     inkscape:cy="256"
     inkscape:window-width="2544"
     inkscape:window-height="1344"
     inkscape:window-x="83"
     inkscape:window-y="58"
     inkscape:window-maximized="0"
     inkscape:current-layer="g12" />
  <g
     fill="#28303f"
     id="g12">
    <path
       d="m 13.728,12 c 0,0.954374 -0.773626,1.728 -1.728,1.728 -0.954374,0 -1.728,-0.773626 -1.728,-1.728 0,-0.954374 0.773626,-1.728 1.728,-1.728 0.954374,0 1.728,0.773626 1.728,1.728 z"
       opacity=".4"
       id="path1"
       style="opacity:1;fill:#666666;stroke-width:1" />
    <path
       d="m 18.728,12 c 0,0.954374 -0.773626,1.728 -1.728,1.728 -0.954374,0 -1.728,-0.773626 -1.728,-1.728 0,-0.954374 0.773626,-1.728 1.728,-1.728 0.954374,0 1.728,0.773626 1.728,1.728 z"
       opacity=".4"
       id="path2"
       style="opacity:1;fill:#666666;stroke-width:1" />
    <path
       d="m 18.728,17 c 0,0.954374 -0.773626,1.728 -1.728,1.728 -0.954374,0 -1.728,-0.773626 -1.728,-1.728 0,-0.954374 0.773626,-1.728 1.728,-1.728 0.954374,0 1.728,0.773626 1.728,1.728 z"
       opacity=".4"
       id="path3"
       style="opacity:1;fill:#666666;stroke-width:1" />
    <path
       d="m 13.728,17 c 0,0.954374 -0.773626,1.728 -1.728,1.728 -0.954374,0 -1.728,-0.773626 -1.728,-1.728 0,-0.954374 0.773626,-1.728 1.728,-1.728 0.954374,0 1.728,0.773626 1.728,1.728 z"
       opacity=".4"
       id="path4"
       style="opacity:1;fill:#666666;stroke-width:1" />
    <path
       d="m 8.728,17 c 0,0.954374 -0.7736602,1.728 -1.728,1.728 -0.9543398,0 -1.728,-0.773626 -1.728,-1.728 0,-0.954374 0.7736602,-1.728 1.728,-1.728 0.9543398,0 1.728,0.773626 1.728,1.728 z"
       opacity=".4"
       id="path5"
       style="opacity:1;fill:#666666;stroke-width:1" />
    <path
       d="m 8.728,12 c 0,0.954374 -0.7736602,1.728 -1.728,1.728 -0.9543398,0 -1.728,-0.773626 -1.728,-1.728 0,-0.954374 0.7736602,-1.728 1.728,-1.728 0.9543398,0 1.728,0.773626 1.728,1.728 z"
       opacity=".4"
       id="path6"
       style="opacity:1;fill:#666666;stroke-width:1" />
    <path
       d="M 8.728,7 C 8.728,7.9543398 7.9543398,8.728 7,8.728 6.0456602,8.728 5.272,7.9543398 5.272,7 5.272,6.0456602 6.0456602,5.272 7,5.272 7.9543398,5.272 8.728,6.0456602 8.728,7 Z"
       opacity=".4"
       id="path7"
       style="opacity:1;fill:#666666;stroke-width:1" />
    <path
       d="m 13.728,7 c 0,0.9543398 -0.773626,1.728 -1.728,1.728 -0.954374,0 -1.728,-0.7736602 -1.728,-1.728 0,-0.9543398 0.773626,-1.728 1.728,-1.728 0.954374,0 1.728,0.7736602 1.728,1.728 z"
       opacity=".4"
       id="path8"
       style="opacity:1;fill:#666666;stroke-width:1" />
    <path
       d="m 18.728,7 c 0,0.9543398 -0.773626,1.728 -1.728,1.728 -0.954374,0 -1.728,-0.7736602 -1.728,-1.728 0,-0.9543398 0.773626,-1.728 1.728,-1.728 0.954374,0 1.728,0.7736602 1.728,1.728 z"
       opacity=".4"
       id="path9"
       style="opacity:1;fill:#666666;stroke-width:1" />
    <g
       clip-rule="evenodd"
       fill-rule="evenodd"
       id="g11">
      <path
         d="m15.25 2c0-.41421.3358-.75.75-.75h2c2.6234 0 4.75 2.12665 4.75 4.75v12c0 2.6234-2.1266 4.75-4.75 4.75h-2c-.4142 0-.75-.3358-.75-.75s.3358-.75.75-.75h2c1.7949 0 3.25-1.4551 3.25-3.25v-12c0-1.79493-1.4551-3.25-3.25-3.25h-2c-.4142 0-.75-.33579-.75-.75z"
         id="path10" />
      <path
         d="m8.75 2c0-.41421-.33579-.75-.75-.75h-2c-2.62335 0-4.75 2.12665-4.75 4.75v12c0 2.6234 2.12665 4.75 4.75 4.75h2c.41421 0 .75-.3358.75-.75s-.33579-.75-.75-.75h-2c-1.79493 0-3.25-1.4551-3.25-3.25v-12c0-1.79493 1.45507-3.25 3.25-3.25h2c.41421 0 .75-.33579.75-.75z"
         id="path11" />
    </g>
  </g>
</svg>
