<?xml version="1.0" encoding="UTF-8" standalone="no"?>
<!-- Generator: Adobe Illustrator 19.0.0, SVG Export Plug-In . SVG Version: 6.00 Build 0)  -->

<svg
   version="1.1"
   id="Layer_1"
   x="0px"
   y="0px"
   viewBox="0 0 512 512"
   style="enable-background:new 0 0 512 512;"
   xml:space="preserve"
   sodipodi:docname="molecule.svg"
   inkscape:export-filename="molecule.png"
   inkscape:export-xdpi="6"
   inkscape:export-ydpi="6"
   inkscape:version="1.4.1 (unknown)"
   xmlns:inkscape="http://www.inkscape.org/namespaces/inkscape"
   xmlns:sodipodi="http://sodipodi.sourceforge.net/DTD/sodipodi-0.dtd"
   xmlns="http://www.w3.org/2000/svg"
   xmlns:svg="http://www.w3.org/2000/svg"><defs
   id="defs20" /><sodipodi:namedview
   id="namedview20"
   pagecolor="#ffffff"
   bordercolor="#666666"
   borderopacity="1.0"
   inkscape:showpageshadow="2"
   inkscape:pageopacity="0.0"
   inkscape:pagecheckerboard="0"
   inkscape:deskcolor="#d1d1d1"
   inkscape:zoom="2.2304688"
   inkscape:cx="256"
   inkscape:cy="256"
   inkscape:window-width="2544"
   inkscape:window-height="1344"
   inkscape:window-x="83"
   inkscape:window-y="58"
   inkscape:window-maximized="0"
   inkscape:current-layer="Layer_1" />
<g
   id="g5">
	<g
   id="g4">
		<g
   id="g3">
			<path
   d="M276.023,250.896l-64-117.333c-1.854-3.427-5.458-5.563-9.354-5.563h-128c-3.896,0-7.5,2.135-9.354,5.563l-64,117.333     c-1.75,3.177-1.75,7.031,0,10.208l64,117.333c1.854,3.427,5.458,5.563,9.354,5.563h128c3.896,0,7.5-2.135,9.354-5.563l64-117.333     C277.773,257.927,277.773,254.073,276.023,250.896z M105.107,340.031c-1.625,0.885-3.375,1.302-5.104,1.302     c-3.771,0-7.437-2.01-9.354-5.563l-40.729-74.667c-2.833-5.167-0.917-11.646,4.25-14.469c5.188-2.802,11.667-0.917,14.458,4.26     l40.729,74.667C112.19,330.729,110.273,337.208,105.107,340.031z M177.336,192h-77.333c-5.896,0-10.667-4.771-10.667-10.667     c0-5.896,4.771-10.667,10.667-10.667h77.333c5.896,0,10.667,4.771,10.667,10.667C188.002,187.229,183.232,192,177.336,192z"
   id="path1" />
			<path
   d="M300.065,239.958c1.917,3.323,5.438,5.375,9.271,5.375h128c3.833,0,7.354-2.052,9.271-5.375l64-112     c1.854-3.281,1.854-7.302,0-10.583l-64-112C444.69,2.052,441.169,0,437.336,0h-128c-3.833,0-7.354,2.052-9.271,5.375l-64,112     c-1.854,3.281-1.854,7.302,0,10.583L300.065,239.958z"
   id="path2" />
			<path
   d="M446.607,272.042c-1.917-3.323-5.438-5.375-9.271-5.375h-128c-3.833,0-7.354,2.052-9.271,5.375l-64,112     c-1.854,3.281-1.854,7.302,0,10.583l64,112c1.917,3.323,5.438,5.375,9.271,5.375h128c3.833,0,7.354-2.052,9.271-5.375l64-112     c1.854-3.281,1.854-7.302,0-10.583L446.607,272.042z M412.565,469.333h-78.458c-5.896,0-10.667-4.771-10.667-10.667     S328.211,448,334.107,448h78.458c5.896,0,10.667,4.771,10.667,10.667S418.461,469.333,412.565,469.333z M457.482,398.594     c-1.667,0.958-3.479,1.406-5.292,1.406c-3.688,0-7.292-1.927-9.271-5.375l-39.625-69.333c-2.917-5.115-1.146-11.625,3.979-14.552     c5.063-2.938,11.604-1.177,14.563,3.969l39.625,69.333C464.378,389.156,462.607,395.667,457.482,398.594z"
   id="path3" />
		</g>
	</g>
</g>
<g
   id="g6">
</g>
<g
   id="g7">
</g>
<g
   id="g8">
</g>
<g
   id="g9">
</g>
<g
   id="g10">
</g>
<g
   id="g11">
</g>
<g
   id="g12">
</g>
<g
   id="g13">
</g>
<g
   id="g14">
</g>
<g
   id="g15">
</g>
<g
   id="g16">
</g>
<g
   id="g17">
</g>
<g
   id="g18">
</g>
<g
   id="g19">
</g>
<g
   id="g20">
</g>
</svg>
