<?xml version="1.0" encoding="UTF-8" standalone="no"?>
<svg
   id="Layer_1"
   viewBox="0 0 512 512"
   data-name="Layer 1"
   version="1.1"
   sodipodi:docname="molecule_features.svg"
   inkscape:export-filename="molecule_features.png"
   inkscape:export-xdpi="6"
   inkscape:export-ydpi="6"
   inkscape:version="1.4.1 (unknown)"
   xmlns:inkscape="http://www.inkscape.org/namespaces/inkscape"
   xmlns:sodipodi="http://sodipodi.sourceforge.net/DTD/sodipodi-0.dtd"
   xmlns="http://www.w3.org/2000/svg"
   xmlns:svg="http://www.w3.org/2000/svg">
  <defs
     id="defs1" />
  <sodipodi:namedview
     id="namedview1"
     pagecolor="#ffffff"
     bordercolor="#666666"
     borderopacity="1.0"
     inkscape:showpageshadow="2"
     inkscape:pageopacity="0.0"
     inkscape:pagecheckerboard="0"
     inkscape:deskcolor="#d1d1d1"
     inkscape:zoom="2.2304688"
     inkscape:cx="256.22417"
     inkscape:cy="256"
     inkscape:window-width="2544"
     inkscape:window-height="1344"
     inkscape:window-x="83"
     inkscape:window-y="58"
     inkscape:window-maximized="0"
     inkscape:current-layer="Layer_1" />
  <path
     d="m489.794 372.83c-18.607 0-27.942 22.541-14.786 35.7a6.208 6.208 0 0 1 0 8.777l-13.362 13.362a6.208 6.208 0 0 1 -8.777 0c-13.156-13.156-35.7-3.82-35.7 14.786a6.206 6.206 0 0 1 -6.207 6.206h-18.892a6.206 6.206 0 0 1 -6.207-6.206c0-18.629-22.524-27.958-35.7-14.786a6.209 6.209 0 0 1 -8.778 0l-13.358-13.369a6.208 6.208 0 0 1 0-8.777c13.156-13.156 3.821-35.7-14.786-35.7a6.206 6.206 0 0 1 -6.206-6.206v-18.9a6.205 6.205 0 0 1 6.206-6.206c18.607 0 27.942-22.541 14.786-35.7a6.209 6.209 0 0 1 0-8.778l13.362-13.361a6.207 6.207 0 0 1 8.778 0c13.155 13.155 35.7 3.82 35.7-14.787a6.207 6.207 0 0 1 6.207-6.206h18.895a6.207 6.207 0 0 1 6.207 6.206c0 18.607 22.541 27.942 35.7 14.787a6.206 6.206 0 0 1 8.777 0l13.362 13.361a6.209 6.209 0 0 1 0 8.778c-13.156 13.156-3.821 35.7 14.786 35.7a6.205 6.205 0 0 1 6.199 6.217v18.9a6.206 6.206 0 0 1 -6.206 6.206zm-299.407-237.758v-22.288a46.738 46.738 0 0 0 14 0v22.288a22.486 22.486 0 0 0 -14 0zm52.7-74.987h78a37.625 37.625 0 0 0 0 14h-78a46.738 46.738 0 0 0 0-14zm48.078 225.331a22.479 22.479 0 0 1 -6.97 12.071l35.452 20.468a7.019 7.019 0 0 0 -1.518-2.231 20.19 20.19 0 0 1 -5.579-17.962zm-249.939 131.5v-45.777a46.738 46.738 0 0 0 14 0v45.777a37.667 37.667 0 0 0 -14 0zm43.079-120.369 19.3-11.145a22.475 22.475 0 0 0 6.983 12.1l-19.288 11.133a46.227 46.227 0 0 0 -6.995-12.088zm117.495-147.377 71.45 41.251a8.627 8.627 0 0 1 4.415 7.649v82.5a8.625 8.625 0 0 1 -4.415 7.648l-71.45 41.256a8.625 8.625 0 0 1 -8.833 0l-71.45-41.252a8.625 8.625 0 0 1 -4.415-7.648v-82.5a8.627 8.627 0 0 1 4.415-7.649l71.45-41.251a8.625 8.625 0 0 1 8.833 0zm-130.133 304.53a23.441 23.441 0 1 1 -23.44-23.441 23.44 23.44 0 0 1 23.44 23.441zm286.207-410.055a23.441 23.441 0 1 1 -23.441 23.441 23.44 23.44 0 0 1 23.441-23.441zm-160.486-8.786a32.227 32.227 0 1 1 -32.227 32.227 32.226 32.226 0 0 1 32.227-32.227zm-149.162 258.355a32.226 32.226 0 1 1 -32.226 32.226 32.227 32.227 0 0 1 32.226-32.226zm353.292 17.786a46.172 46.172 0 1 0 46.172 46.172 46.172 46.172 0 0 0 -46.172-46.172z"
     fill-rule="evenodd"
     id="path1" />
</svg>
