<svg id="Layer_1" viewBox="0 0 64 64" xmlns="http://www.w3.org/2000/svg" data-name="Layer 1"><path d="m36.72 18.648-7.708 13.352 7.708 13.352h15.417l7.709-13.352-7.709-13.352zm7.709 21.447c-4.464 0-8.096-3.632-8.096-8.096s3.632-8.096 8.096-8.096 8.096 3.632 8.096 8.096-3.632 8.096-8.096 8.096z"/><path d="m19.663 23.477c3.361 0 6.096-2.734 6.096-6.096s-2.734-6.095-6.096-6.095-6.096 2.734-6.096 6.095 2.734 6.096 6.096 6.096z"/><path d="m27.28 31 7.708-13.352-7.708-13.35h-15.417l-7.709 13.351 7.709 13.352h15.417zm-7.617-21.714c4.464 0 8.096 3.631 8.096 8.095s-3.632 8.096-8.096 8.096-8.096-3.632-8.096-8.096 3.632-8.095 8.096-8.095z"/><path d="m19.663 40.256c-3.361 0-6.096 2.734-6.096 6.096s2.734 6.095 6.096 6.095 6.096-2.734 6.096-6.095-2.734-6.096-6.096-6.096z"/><circle cx="44.429" cy="32" r="6.096"/><path d="m11.863 33-7.709 13.352 7.709 13.351h15.417l7.708-13.35-7.708-13.352h-15.417zm7.8 21.446c-4.464 0-8.096-3.631-8.096-8.095s3.632-8.096 8.096-8.096 8.096 3.632 8.096 8.096-3.632 8.095-8.096 8.095z"/></svg>