<?xml version="1.0" encoding="UTF-8" standalone="no"?>
<svg
   id="Layer_2_copy_2"
   height="512"
   viewBox="0 0 64 64"
   width="512"
   data-name="Layer 2 copy 2"
   version="1.1"
   sodipodi:docname="pdf-document.svg"
   inkscape:export-filename="pdf-document.png"
   inkscape:export-xdpi="6"
   inkscape:export-ydpi="6"
   inkscape:version="1.4.1 (unknown)"
   xmlns:inkscape="http://www.inkscape.org/namespaces/inkscape"
   xmlns:sodipodi="http://sodipodi.sourceforge.net/DTD/sodipodi-0.dtd"
   xmlns="http://www.w3.org/2000/svg"
   xmlns:svg="http://www.w3.org/2000/svg">
  <defs
     id="defs8" />
  <sodipodi:namedview
     id="namedview8"
     pagecolor="#ffffff"
     bordercolor="#666666"
     borderopacity="1.0"
     inkscape:showpageshadow="2"
     inkscape:pageopacity="0.0"
     inkscape:pagecheckerboard="0"
     inkscape:deskcolor="#d1d1d1"
     inkscape:zoom="2.2304688"
     inkscape:cx="256.22417"
     inkscape:cy="256"
     inkscape:window-width="2544"
     inkscape:window-height="1344"
     inkscape:window-x="83"
     inkscape:window-y="58"
     inkscape:window-maximized="0"
     inkscape:current-layer="Layer_2_copy_2" />
  <g
     fill="rgb(0,0,0)"
     id="g8">
    <path
       d="m40.96 48.77a3.90815 3.90815 0 0 1 2.54-5.27995v-11.60005a4.75427 4.75427 0 0 1 4.75-4.75h3.85v-11.68c-1.28026.00556-6.8728-.004-8.27 0a2.97036 2.97036 0 0 1 -2.97-2.97c-.00244-1.37312.00175-7.20261 0-8.49h-15.91a4.95485 4.95485 0 0 0 -4.95 4.95v3.78c.71864-.00792 14.29358.00571 15.48 0a5.00827 5.00827 0 0 1 5 5v10.74a5.00824 5.00824 0 0 1 -5 5h-15.48v12.34a4.9634 4.9634 0 0 0 4.95 4.96h17.13c-.2043-.35718-.988-1.65967-1.12-2z"
       id="path1" />
    <path
       d="m38.48 28.47v-10.74a3.00879 3.00879 0 0 0 -3-3h-27.5a3.00883 3.00883 0 0 0 -3 3v10.74a3.00238 3.00238 0 0 0 3 3h27.5a3.00234 3.00234 0 0 0 3-3zm-4.75-7.1a1.0001 1.0001 0 0 1 0 2h-4.22v4.36a1 1 0 1 1 -2 0v-9.25a.99654.99654 0 0 1 1-1h5.22a1.0001 1.0001 0 0 1 0 2h-4.22v1.89zm-7.81 1.65a5.55345 5.55345 0 0 1 -5.54 5.71h-1.68a1.003 1.003 0 0 1 -1-1v-9.25a.99654.99654 0 0 1 1-1h1.68a5.53953 5.53953 0 0 1 5.54 5.54zm-17.19-4.54a.99654.99654 0 0 1 1-1h2.65c4.43447.10845 4.35327 6.65163-.00009 6.74h-1.64991v3.51a1.00011 1.00011 0 0 1 -2-.00005z"
       id="path2" />
    <path
       d="m13.71 20.89a1.343 1.343 0 0 0 -1.33-1.41h-1.65v2.74h1.65a1.32306 1.32306 0 0 0 1.33-1.33z"
       id="path3" />
    <path
       d="m19.7 19.48v7.25a3.66624 3.66624 0 1 0 0-7.25z"
       id="path4" />
    <path
       d="m58.76 46.3c-.53-.99612-1.61986-.97794-2.60006-.93993v-13.47a2.757 2.757 0 0 0 -2.76-2.75h-5.14994a2.74842 2.74842 0 0 0 -2.75 2.75v13.46993h-.98a1.88207 1.88207 0 0 0 -1.63 2.81l6.31 10.9a1.87961 1.87961 0 0 0 3.25-.01l6.31-10.89a1.84179 1.84179 0 0 0 0-1.87z"
       id="path5" />
    <path
       d="m43.83 13.46h8.27v-.16a3.92947 3.92947 0 0 0 -1.12-2.76l-5.19-5.34a3.97235 3.97235 0 0 0 -2.93-1.2c.00061 1.31452-.00043 7.06225 0 8.49a.97741.97741 0 0 0 .97.97z"
       id="path6" />
    <path
       d="m18 12.73c-.00043-.35925.00031-2.15337 0-2.55h-3a4.95986 4.95986 0 0 0 -4.33 2.55c1.6139.00214 5.66985-.00157 7.33 0z"
       id="path7" />
    <path
       d="m24.95 52.77a6.96288 6.96288 0 0 1 -6.95-6.96v-12.34c-1.41046.00371-6.62415-.00267-7.95 0v18.52a4.96349 4.96349 0 0 0 4.95 4.96h22.2a4.94933 4.94933 0 0 0 4.88-4.18c-.50422.00675-16.03021-.00494-17.13 0z"
       id="path8" />
  </g>
</svg>
