<?xml version="1.0" encoding="UTF-8" standalone="no"?>
<svg
   id="Layer_1"
   enable-background="new 0 0 28 28"
   viewBox="0 0 28 28"
   version="1.1"
   sodipodi:docname="run2.svg"
   inkscape:export-filename="run2.png"
   inkscape:export-xdpi="109.71429"
   inkscape:export-ydpi="109.71429"
   inkscape:version="1.4.1 (unknown)"
   xmlns:inkscape="http://www.inkscape.org/namespaces/inkscape"
   xmlns:sodipodi="http://sodipodi.sourceforge.net/DTD/sodipodi-0.dtd"
   xmlns="http://www.w3.org/2000/svg"
   xmlns:svg="http://www.w3.org/2000/svg">
  <defs
     id="defs1" />
  <sodipodi:namedview
     id="namedview1"
     pagecolor="#ffffff"
     bordercolor="#666666"
     borderopacity="1.0"
     inkscape:showpageshadow="2"
     inkscape:pageopacity="0.0"
     inkscape:pagecheckerboard="0"
     inkscape:deskcolor="#d1d1d1"
     inkscape:zoom="40.785714"
     inkscape:cx="14"
     inkscape:cy="14"
     inkscape:window-width="2544"
     inkscape:window-height="1344"
     inkscape:window-x="83"
     inkscape:window-y="58"
     inkscape:window-maximized="0"
     inkscape:current-layer="Layer_1" />
  <g
     id="g1">
    <path
       d="m25.3349915 16.8099976-1.7299805-1.6300049c.039978-.3900146.0700073-.7900391.0700073-1.1900024 0-.4200439-.0300293-.8099976-.0800171-1.2000122l1.7299805-1.6400146c.3400269-.3200073.4100342-.8300171.1799927-1.2299805l-2.2399902-3.8699951c-.2299805-.4100342-.7099609-.6000366-1.1599731-.460022l-2.2800293.6900024c-.6399536-.4799805-1.3299561-.8800049-2.0700073-1.1900024l-.5499878-2.3200073c-.0999757-.4500123-.5100099-.7699586-.9699708-.7699586h-4.4800415c-.4699707 0-.8699951.3199463-.9699707.7699585l-.5499878 2.3200073c-.7399902.3099976-1.4299927.7200317-2.0700073 1.210022l-2.289978-.6799927c-.4400025-.1300049-.920044.0499878-1.1500245.4499512l-2.2399902 3.8800049c-.2300415.4000244-.1600342.9100342.1799927 1.2300415l1.7299805 1.6199951c-.039978.3999634-.0700073.789978-.0700073 1.1900024 0 .4199829.0300293.8299561.0800171 1.2299805l-1.7199707 1.6300049c-.3400269.3200073-.4100342.8300171-.1800537 1.2299805l2.2400513 3.8699951c.2299805.4100342.7099609.6000366 1.1499634.460022l2.2900391-.6900024c.6399536.4899902 1.3299561.8900146 2.0699463 1.2000122l.5500488 2.3099976c.0999754.4500121.4999998.7700194.9699705.7700194h4.4799805c.460022 0 .8700562-.3200073.9700317-.7700195l.5499878-2.3200073c.7399902-.3099976 1.4299927-.7199707 2.0700073-1.210022l2.289978.6800537c.4400024.1399536.9200439-.0500488 1.1500244-.460022l2.2299805-3.8800049c.2300415-.4000244.1600342-.9099731-.1799926-1.2299804zm-8.2614747-2.2570191-2.4248047 3.6557617c-.3052959.460268-.9269314.5856419-1.3862305.2807617-.4604492-.3056641-.5859375-.9257813-.2807617-1.3862305l1.3950195-2.1030273h-2.6176758c-.3681641 0-.7070313-.2026367-.8813477-.5268555-.1738281-.324707-.1557617-.71875.0478516-1.0258789l2.2426758-3.3813477c.3051758-.4594727.9267578-.5864258 1.3862305-.2807617.4604492.3051758.5859375.9257813.2807617 1.3862305l-1.2128906 1.8286133h2.6176758c.3681641 0 .7070313.2026367.8813477.5273438.1738281.3242187.1557617.7182617-.0478516 1.0253906z"
       id="path1" />
  </g>
</svg>
