<?xml version="1.0" encoding="UTF-8" standalone="no"?>
<svg
   id="Layer_1"
   data-name="Layer 1"
   viewBox="0 0 24 24"
   version="1.1"
   sodipodi:docname="save.svg"
   inkscape:version="1.4.1 (unknown)"
   inkscape:export-filename="save.png"
   inkscape:export-xdpi="128"
   inkscape:export-ydpi="128"
   xmlns:inkscape="http://www.inkscape.org/namespaces/inkscape"
   xmlns:sodipodi="http://sodipodi.sourceforge.net/DTD/sodipodi-0.dtd"
   xmlns="http://www.w3.org/2000/svg"
   xmlns:svg="http://www.w3.org/2000/svg">
  <defs
     id="defs1" />
  <sodipodi:namedview
     id="namedview1"
     pagecolor="#ffffff"
     bordercolor="#666666"
     borderopacity="1.0"
     inkscape:showpageshadow="2"
     inkscape:pageopacity="0.0"
     inkscape:pagecheckerboard="0"
     inkscape:deskcolor="#d1d1d1"
     inkscape:zoom="25.794344"
     inkscape:cx="5.9896852"
     inkscape:cy="12.211979"
     inkscape:window-width="2544"
     inkscape:window-height="1344"
     inkscape:window-x="83"
     inkscape:window-y="58"
     inkscape:window-maximized="0"
     inkscape:current-layer="Layer_1" />
  <path
     d="m 10,18 c 0,-4.411 3.589,-8 8,-8 H 13 C 11.346,10 10,8.654 10,7 V 0.024 C 9.839,0.013 9.678,0 9.515,0 H 5 C 2.243,0 0,2.243 0,5 v 14 c 0,2.757 2.243,5 5,5 h 7.726 C 11.059,22.533 10,20.39 10,18 Z"
     id="path3" />
  <path
     d="m 18,24 c -3.314,0 -6,-2.686 -6,-6 0,-3.314 2.686,-6 6,-6 3.314,0 6,2.686 6,6 0,3.314 -2.686,6 -6,6 z m 2.932,-5.459 C 20.796,18.213 20.476,18 20.12,18 h -1.121 v -3 c 0,-0.552 -0.447,-1 -1,-1 -0.553,0 -1,0.448 -1,1 v 3 h -1.121 c -0.355,0 -0.676,0.213 -0.812,0.541 -0.138,0.329 -0.062,0.706 0.19,0.957 l 1.5,1.5 c 0.685,0.685 1.8,0.685 2.485,0 l 1.5,-1.5 c 0.253,-0.252 0.326,-0.632 0.19,-0.957 z"
     id="path2" />
  <path
     d="M 12,7 V 0.46 c 0.913,0.346 1.753,0.879 2.465,1.59 l 3.484,3.486 C 18.661,6.247 19.194,7.087 19.54,8 H 13 C 12.448,8 12,7.551 12,7 Z"
     id="path1" />
</svg>
