<?xml version="1.0" encoding="UTF-8" standalone="no"?>
<svg
   id="Layer_10"
   viewBox="0 0 24 24"
   data-name="Layer 10"
   version="1.1"
   sodipodi:docname="savadata.svg"
   inkscape:export-filename="savadata.png"
   inkscape:export-xdpi="128"
   inkscape:export-ydpi="128"
   inkscape:version="1.4.1 (unknown)"
   xmlns:inkscape="http://www.inkscape.org/namespaces/inkscape"
   xmlns:sodipodi="http://sodipodi.sourceforge.net/DTD/sodipodi-0.dtd"
   xmlns="http://www.w3.org/2000/svg"
   xmlns:svg="http://www.w3.org/2000/svg">
  <defs
     id="defs1" />
  <sodipodi:namedview
     id="namedview1"
     pagecolor="#ffffff"
     bordercolor="#666666"
     borderopacity="1.0"
     inkscape:showpageshadow="2"
     inkscape:pageopacity="0.0"
     inkscape:pagecheckerboard="0"
     inkscape:deskcolor="#d1d1d1"
     inkscape:zoom="47.583333"
     inkscape:cx="12"
     inkscape:cy="12"
     inkscape:window-width="2544"
     inkscape:window-height="1344"
     inkscape:window-x="83"
     inkscape:window-y="58"
     inkscape:window-maximized="0"
     inkscape:current-layer="Layer_10" />
  <path
     d="m21.71 19.71-2 2c-.09.09-.2.17-.33.22-.12.05-.25.08-.38.08s-.26-.03-.38-.08-.23-.12-.33-.22l-2-2c-.29-.29-.37-.72-.22-1.09s.52-.62.92-.62h1v-2c0-.55.45-1 1-1s1 .45 1 1v2h1c.4 0 .77.24.92.62s.07.8-.22 1.09zm-5.74-6.53-4.46 2.68c-.15.09-.33.14-.51.14-.19 0-.39-.06-.55-.17l-2.63-1.75-5.82 1.59v1.33c0 1.65 1.35 3 3 3h8c.55 0 1-.45 1-1 0-2.25 1.48-4.15 3.52-4.78zm-8.23-1.14-5.74 1.56v-8.6c0-1.65 1.35-3 3-3h12c1.65 0 3 1.35 3 3v8c0 .14-.03.28-.09.4l-3.36-2.23c-.32-.22-.73-.23-1.06-.03l-4.46 2.68-2.48-1.65c-.24-.16-.53-.21-.81-.13zm-.24-3.04c.83 0 1.5-.67 1.5-1.5s-.67-1.5-1.5-1.5-1.5.67-1.5 1.5.67 1.5 1.5 1.5z"
     id="path1" />
</svg>
